<svg xmlns="http://www.w3.org/2000/svg" width="25" height="25" viewBox="0 0 25 25">
  <g id="calendar" transform="translate(-2 -2)">
    <path id="Path_2242" data-name="Path 2242" d="M24.131,17.617V6.1a2.052,2.052,0,0,0-2.049-2.049h-.82V3.23a1.23,1.23,0,0,0-2.459,0v.82H16.754V3.23a1.23,1.23,0,0,0-2.459,0v.82H11.836V3.23a1.23,1.23,0,0,0-2.459,0v.82H7.328V3.23a1.23,1.23,0,1,0-2.459,0v.82h-.82A2.052,2.052,0,0,0,2,6.1V22.492a2.052,2.052,0,0,0,2.049,2.049h13.78a4.914,4.914,0,1,0,6.3-6.924ZM19.623,3.23a.41.41,0,1,1,.82,0V5.689a.41.41,0,1,1-.82,0Zm-4.508,0a.41.41,0,0,1,.82,0V5.689a.41.41,0,1,1-.82,0Zm-4.918,0a.41.41,0,0,1,.82,0V5.689a.41.41,0,1,1-.82,0Zm-4.508,0a.41.41,0,0,1,.82,0V5.689a.41.41,0,0,1-.82,0ZM4.049,4.869h.82v.82a1.23,1.23,0,1,0,2.459,0v-.82H9.377v.82a1.23,1.23,0,1,0,2.459,0v-.82H14.3v.82a1.23,1.23,0,1,0,2.459,0v-.82H18.8v.82a1.23,1.23,0,0,0,2.459,0v-.82h.82a1.231,1.231,0,0,1,1.23,1.23V8.148H2.82V6.1A1.231,1.231,0,0,1,4.049,4.869Zm0,18.852a1.231,1.231,0,0,1-1.23-1.23V8.967H23.311v8.359a4.68,4.68,0,0,0-2.049-.088V15.115a.41.41,0,0,0-.41-.41H18.393a.41.41,0,0,0-.41.41v2.459a.41.41,0,0,0,.41.41h.976a4.89,4.89,0,0,0-1.918,5.738Zm16.393-6.557H18.8V15.525h1.639Zm1.639,9.016a4.1,4.1,0,1,1,4.1-4.1A4.1,4.1,0,0,1,22.082,26.18Z"/>
    <path id="Path_2243" data-name="Path 2243" d="M48.09,45.573V43h-.82v2.573a.783.783,0,0,0-.4.827l-1.5,1.2.512.64,1.5-1.2a.817.817,0,0,0,.706-1.468Z" transform="translate(-25.598 -24.197)"/>
    <path id="Path_2244" data-name="Path 2244" d="M10.869,22H8.41a.41.41,0,0,0-.41.41v2.459a.41.41,0,0,0,.41.41h2.459a.41.41,0,0,0,.41-.41V22.41A.41.41,0,0,0,10.869,22Zm-.41,2.459H8.82V22.82h1.639Z" transform="translate(-3.541 -11.803)"/>
    <path id="Path_2245" data-name="Path 2245" d="M21.869,22H19.41a.41.41,0,0,0-.41.41v2.459a.41.41,0,0,0,.41.41h2.459a.41.41,0,0,0,.41-.41V22.41A.41.41,0,0,0,21.869,22Zm-.41,2.459H19.82V22.82h1.639Z" transform="translate(-10.033 -11.803)"/>
    <path id="Path_2246" data-name="Path 2246" d="M32.869,22H30.41a.41.41,0,0,0-.41.41v2.459a.41.41,0,0,0,.41.41h2.459a.41.41,0,0,0,.41-.41V22.41A.41.41,0,0,0,32.869,22Zm-.41,2.459H30.82V22.82h1.639Z" transform="translate(-16.525 -11.803)"/>
    <path id="Path_2247" data-name="Path 2247" d="M41.41,25.279h2.459a.41.41,0,0,0,.41-.41V22.41a.41.41,0,0,0-.41-.41H41.41a.41.41,0,0,0-.41.41v2.459A.41.41,0,0,0,41.41,25.279Zm.41-2.459h1.639v1.639H41.82Z" transform="translate(-23.016 -11.803)"/>
    <path id="Path_2248" data-name="Path 2248" d="M10.869,33H8.41a.41.41,0,0,0-.41.41v2.459a.41.41,0,0,0,.41.41h2.459a.41.41,0,0,0,.41-.41V33.41A.41.41,0,0,0,10.869,33Zm-.41,2.459H8.82V33.82h1.639Z" transform="translate(-3.541 -18.295)"/>
    <path id="Path_2249" data-name="Path 2249" d="M21.869,33H19.41a.41.41,0,0,0-.41.41v2.459a.41.41,0,0,0,.41.41h2.459a.41.41,0,0,0,.41-.41V33.41A.41.41,0,0,0,21.869,33Zm-.41,2.459H19.82V33.82h1.639Z" transform="translate(-10.033 -18.295)"/>
    <path id="Path_2250" data-name="Path 2250" d="M32.869,33H30.41a.41.41,0,0,0-.41.41v2.459a.41.41,0,0,0,.41.41h2.459a.41.41,0,0,0,.41-.41V33.41A.41.41,0,0,0,32.869,33Zm-.41,2.459H30.82V33.82h1.639Z" transform="translate(-16.525 -18.295)"/>
    <path id="Path_2251" data-name="Path 2251" d="M10.869,44H8.41a.41.41,0,0,0-.41.41v2.459a.41.41,0,0,0,.41.41h2.459a.41.41,0,0,0,.41-.41V44.41A.41.41,0,0,0,10.869,44Zm-.41,2.459H8.82V44.82h1.639Z" transform="translate(-3.541 -24.787)"/>
    <path id="Path_2252" data-name="Path 2252" d="M21.869,44H19.41a.41.41,0,0,0-.41.41v2.459a.41.41,0,0,0,.41.41h2.459a.41.41,0,0,0,.41-.41V44.41A.41.41,0,0,0,21.869,44Zm-.41,2.459H19.82V44.82h1.639Z" transform="translate(-10.033 -24.787)"/>
    <path id="Path_2253" data-name="Path 2253" d="M32.869,44H30.41a.41.41,0,0,0-.41.41v2.459a.41.41,0,0,0,.41.41h2.459a.41.41,0,0,0,.41-.41V44.41A.41.41,0,0,0,32.869,44Zm-.41,2.459H30.82V44.82h1.639Z" transform="translate(-16.525 -24.787)"/>
  </g>
</svg>
