<svg xmlns="http://www.w3.org/2000/svg" width="23.159" height="22" viewBox="0 0 23.159 22">
  <g id="contact" transform="translate(-0.001 -12.813)">
    <g id="Group_4467" data-name="Group 4467" transform="translate(0.001 12.813)">
      <g id="Group_4466" data-name="Group 4466" transform="translate(0 0)">
        <path id="Path_2257" data-name="Path 2257" d="M22.176,12.813H6a.986.986,0,0,0-.985.985V18.26l-.74-1.11A1.144,1.144,0,0,0,2.73,16.8l-1.522.915a2.233,2.233,0,0,0-1.02,1.323c-.555,2.022-.143,5.5,4.969,10.617,4.065,4.061,7.1,5.155,9.186,5.155a5.394,5.394,0,0,0,1.432-.187A2.237,2.237,0,0,0,17.1,33.607l.914-1.524a1.144,1.144,0,0,0-.347-1.542l-3.644-2.429a1.15,1.15,0,0,0-1.54.25L11.42,29.726a.369.369,0,0,1-.473.1l-.2-.111a12.137,12.137,0,0,1-3.162-2.483c-.181-.181-.344-.35-.5-.512h15.09a.984.984,0,0,0,.985-.98V13.8A.986.986,0,0,0,22.176,12.813Zm-11.8,17.58.2.108a1.137,1.137,0,0,0,1.457-.3l1.061-1.364a.375.375,0,0,1,.5-.081l3.644,2.429a.373.373,0,0,1,.113.5l-.914,1.524a1.467,1.467,0,0,1-.865.672c-1.825.5-5.019.077-9.867-4.771S.434,21.068.934,19.245a1.467,1.467,0,0,1,.671-.865l1.524-.914a.373.373,0,0,1,.5.113l2.43,3.644a.375.375,0,0,1-.081.5L4.616,22.786a1.137,1.137,0,0,0-.3,1.457l.108.2a12.8,12.8,0,0,0,2.615,3.338A12.825,12.825,0,0,0,10.376,30.393ZM22.388,25.74a.211.211,0,0,1-.212.208H6.39A9.737,9.737,0,0,1,5.1,24.07l-.111-.2a.368.368,0,0,1,.1-.472l1.364-1.061a1.15,1.15,0,0,0,.25-1.54l-.917-1.377V13.8A.21.21,0,0,1,6,13.585H22.176a.21.21,0,0,1,.212.212V25.74Z" transform="translate(-0.001 -12.813)"/>
        <path id="Path_2258" data-name="Path 2258" d="M162.449,50.666,156,55.56a.521.521,0,0,1-.612,0l-6.45-4.894a.386.386,0,0,0-.467.615l6.451,4.893a1.3,1.3,0,0,0,1.544,0l6.453-4.893a.386.386,0,0,0-.466-.615Z" transform="translate(-141.603 -48.879)"/>
        <path id="Path_2259" data-name="Path 2259" d="M152.869,172.519l-3.955,4.235a.386.386,0,1,0,.565.527l3.955-4.237a.386.386,0,0,0-.565-.525Z" transform="translate(-142.077 -165.19)"/>
        <path id="Path_2260" data-name="Path 2260" d="M370.62,172.2a.386.386,0,0,0-.565.527l3.954,4.235a.386.386,0,1,0,.565-.527Z" transform="translate(-353.213 -164.873)"/>
      </g>
    </g>
  </g>
</svg>
