<svg xmlns="http://www.w3.org/2000/svg" width="23.5" height="24.42" viewBox="0 0 23.5 24.42">
  <g id="discount_4_" data-name="discount (4)" transform="translate(-10.123 0.272)">
    <g id="Group_5939" data-name="Group 5939" transform="translate(10.359 -0.002)">
      <g id="Group_5938" data-name="Group 5938" transform="translate(0 0)">
        <path id="Path_2712" data-name="Path 2712" d="M32.277,12.309a.7.7,0,0,1,0-.622l.9-1.831a2.083,2.083,0,0,0-.9-2.767l-1.8-.955a.7.7,0,0,1-.365-.5l-.352-2.008A2.084,2.084,0,0,0,27.4,1.914L25.384,2.2a.7.7,0,0,1-.591-.192L23.328.59a2.083,2.083,0,0,0-2.909,0L18.954,2.007a.7.7,0,0,1-.591.192l-2.018-.285a2.083,2.083,0,0,0-2.353,1.71l-.352,2.007a.7.7,0,0,1-.365.5l-1.8.955a2.083,2.083,0,0,0-.9,2.767l.9,1.831a.7.7,0,0,1,0,.622l-.9,1.831a2.083,2.083,0,0,0,.9,2.767l1.8.955a.7.7,0,0,1,.365.5l.352,2.008A2.082,2.082,0,0,0,16.045,22.1a2.14,2.14,0,0,0,.3-.021l2.018-.285a.7.7,0,0,1,.591.192l1.465,1.417a2.083,2.083,0,0,0,2.909,0l1.465-1.417a.7.7,0,0,1,.591-.192l2.018.285a2.083,2.083,0,0,0,2.353-1.71l.352-2.007a.7.7,0,0,1,.365-.5l1.8-.955a2.083,2.083,0,0,0,.9-2.767Zm-.653,3.375-1.8.955a2.079,2.079,0,0,0-1.08,1.487l-.352,2.008a.7.7,0,0,1-.8.579l-2.018-.285a2.078,2.078,0,0,0-1.748.568l-1.465,1.417a.7.7,0,0,1-.984,0l-1.465-1.417a2.077,2.077,0,0,0-1.45-.589,2.125,2.125,0,0,0-.3.021l-2.018.285a.705.705,0,0,1-.8-.579L15,18.126a2.079,2.079,0,0,0-1.08-1.486l-1.8-.955a.7.7,0,0,1-.3-.936l.9-1.831a2.079,2.079,0,0,0,0-1.837l-.9-1.831a.7.7,0,0,1,.3-.936l1.8-.955A2.079,2.079,0,0,0,15,5.87l.352-2.008a.7.7,0,0,1,.8-.579l2.018.285A2.079,2.079,0,0,0,19.916,3l1.465-1.417a.7.7,0,0,1,.984,0L23.83,3a2.078,2.078,0,0,0,1.748.568L27.6,3.284a.7.7,0,0,1,.8.579l.352,2.008a2.079,2.079,0,0,0,1.08,1.486l1.8.955a.7.7,0,0,1,.3.936l-.9,1.831a2.079,2.079,0,0,0,0,1.837l.9,1.831A.7.7,0,0,1,31.625,15.684Z" transform="translate(-10.359 0.002)" stroke="#fff" stroke-width="0.3"/>
      </g>
    </g>
    <g id="Group_5941" data-name="Group 5941" transform="translate(16.614 6.738)">
      <g id="Group_5940" data-name="Group 5940">
        <path id="Path_2713" data-name="Path 2713" d="M154.108,143.994a.692.692,0,0,0-.979,0l-9.135,9.135a.692.692,0,1,0,.979.979l9.135-9.135A.692.692,0,0,0,154.108,143.994Z" transform="translate(-143.791 -143.791)" stroke="#fff" stroke-width="0.3"/>
      </g>
    </g>
    <g id="Group_5943" data-name="Group 5943" transform="translate(16.567 5.769)">
      <g id="Group_5942" data-name="Group 5942">
        <path id="Path_2714" data-name="Path 2714" d="M145.34,123.116a2.538,2.538,0,1,0,2.538,2.538A2.541,2.541,0,0,0,145.34,123.116Zm0,3.691a1.154,1.154,0,1,1,1.154-1.154A1.155,1.155,0,0,1,145.34,126.807Z" transform="translate(-142.802 -123.116)" stroke="#fff" stroke-width="0.3"/>
      </g>
    </g>
    <g id="Group_5945" data-name="Group 5945" transform="translate(22.104 13.152)">
      <g id="Group_5944" data-name="Group 5944" transform="translate(0)">
        <path id="Path_2715" data-name="Path 2715" d="M263.46,280.61A2.538,2.538,0,1,0,266,283.148,2.541,2.541,0,0,0,263.46,280.61Zm0,3.691a1.153,1.153,0,1,1,1.153-1.154A1.155,1.155,0,0,1,263.46,284.3Z" transform="translate(-260.922 -280.61)" stroke="#fff" stroke-width="0.3"/>
      </g>
    </g>
  </g>
</svg>
