<svg xmlns="http://www.w3.org/2000/svg" width="33.992" height="23.4" viewBox="0 0 33.992 23.4">
  <g id="spa" transform="translate(0.2 -79.393)">
    <path id="Path_2710" data-name="Path 2710" d="M33.314,97.253a24.252,24.252,0,0,0-7.948-3.8,14.33,14.33,0,0,0-.136-8.131.679.679,0,0,0-.946-.366,23.736,23.736,0,0,0-3.352,2.187,24.787,24.787,0,0,0-3.616-7.276.675.675,0,0,0-1.091,0,24.784,24.784,0,0,0-3.616,7.275A23.742,23.742,0,0,0,9.257,84.96a.677.677,0,0,0-.946.366,14.326,14.326,0,0,0-.132,8.144,24.1,24.1,0,0,0-7.9,3.783.675.675,0,0,0,0,1.091c4.042,2.821,7.94,4.249,11.6,4.249a13.152,13.152,0,0,0,4.919-.944,13.028,13.028,0,0,0,4.919.944.674.674,0,1,0,0-1.331,11.856,11.856,0,0,1-3.236-.442c.384-.225.728-.453,1.03-.671a24.018,24.018,0,0,0,3.229-2.31,10.463,10.463,0,0,0,2.157-3.126,21.972,21.972,0,0,1,6.85,3.086,24.144,24.144,0,0,1-4.759,2.452.666.666,0,0,0,.462,1.248,26.415,26.415,0,0,0,5.866-3.154A.675.675,0,0,0,33.314,97.253ZM16.769,81.44A21.507,21.507,0,0,1,19.9,88.485a11.926,11.926,0,0,1-3.129,11.3,11.926,11.926,0,0,1-3.129-11.3,21.506,21.506,0,0,1,3.129-7.046Zm-7.415,5.1a20.766,20.766,0,0,1,2.908,2.039A13.507,13.507,0,0,0,14.12,98.667C9.711,96.2,8.239,91.306,9.354,86.543ZM1.848,97.8a21.762,21.762,0,0,1,6.8-3.073,11.379,11.379,0,0,0,5.455,5.442c.3.219.648.446,1.03.668C10.144,102.26,5.074,99.892,1.848,97.8Zm17.571.872a13.507,13.507,0,0,0,1.859-10.086,20.767,20.767,0,0,1,2.909-2.04C25.3,91.308,23.829,96.2,19.418,98.669Z" transform="translate(0 0)" stroke="#fff" stroke-width="0.4"/>
    <path id="Path_2711" data-name="Path 2711" d="M362.045,402.713a.665.665,0,1,0-.36.868A.67.67,0,0,0,362.045,402.713Z" transform="translate(-336.764 -301.239)" stroke="#fff" stroke-width="0.4"/>
  </g>
</svg>
